<svg width="106" height="106" viewBox="0 0 106 106" fill="none" xmlns="http://www.w3.org/2000/svg">
<g filter="url(#filter0_d_1_754)">
<rect x="20" y="10" width="66" height="66" rx="24" fill="url(#paint0_linear_1_754)"/>
</g>
<path d="M44.2891 33.8617L46.4393 36.0119C46.5736 35.2503 46.9768 34.5336 47.5592 33.996C48.9926 32.6522 51.322 32.6074 52.7555 33.9513C52.8451 34.0408 52.9347 34.1304 53.0242 34.22C53.6066 34.892 53.965 35.7431 53.965 36.639C53.965 36.8182 53.965 36.9974 53.9202 37.1318C53.8306 37.9829 53.4722 38.7444 52.8451 39.3715C52.3075 39.9091 51.6356 40.2675 50.874 40.4018L53.0242 42.552L55.6224 39.9539C55.6672 39.9091 55.6672 39.9091 55.712 39.9091C55.712 39.9091 55.712 39.9091 55.7568 39.9091C55.8016 39.9091 55.8016 39.9091 55.8464 39.9091C55.8912 39.9091 55.936 39.9091 55.936 39.9091C56.0256 39.9539 56.1152 40.0435 56.1152 40.1779C56.1152 41.029 56.4735 41.7905 57.0559 42.3729C57.683 43 58.4893 43.3136 59.3404 43.3136C59.3404 43.3136 59.3404 43.3136 59.3852 43.3136C59.654 43.3136 59.878 43.2688 60.1468 43.224C60.7291 43.0896 61.2667 42.776 61.6698 42.3281C62.3866 41.5217 62.6553 40.4466 62.4314 39.4163C62.297 38.8788 62.0282 38.386 61.6698 37.9829C61.4459 37.7589 61.1771 37.5349 60.9083 37.4005C60.6395 37.2661 60.3708 37.1765 60.102 37.087C59.9676 37.0422 59.8332 37.0422 59.6988 36.9974C59.6092 36.9974 59.4748 36.9974 59.3852 36.9974C59.2509 36.9974 59.1613 36.9078 59.1165 36.8182C59.0717 36.7286 59.1165 36.5942 59.1613 36.5046L61.7594 33.9065L54.5025 26.6047C53.6962 25.7984 52.3523 25.7984 51.546 26.6047L44.2891 33.8617Z" fill="white"/>
<path d="M69.4177 41.5218L62.1607 34.2649L60.0105 36.4151C60.7721 36.5495 61.4888 36.9526 62.0264 37.4902C63.3702 38.9237 63.415 41.253 62.0712 42.6865C61.3544 43.448 60.4137 43.896 59.3834 43.896C58.3531 43.9408 57.3676 43.5376 56.6509 42.7761C56.1133 42.2385 55.7549 41.5666 55.6206 40.8051L53.4256 43.0001L56.0237 45.5982C56.1133 45.6878 56.1133 45.8222 56.0685 45.9118C56.0237 46.0014 55.9341 46.091 55.7997 46.091C54.9486 46.091 54.1871 46.4493 53.6048 47.0317C52.9776 47.6588 52.664 48.4652 52.664 49.3611C52.664 50.2122 53.0224 51.0185 53.6943 51.6457C53.8735 51.8248 54.0975 52.004 54.3663 52.0936C55.531 52.7208 57.054 52.5416 58.0843 51.6009C58.7115 51.0185 59.0698 50.2122 59.0698 49.3611C59.0698 49.2267 59.1594 49.1371 59.249 49.0923C59.3386 49.0475 59.473 49.0923 59.5626 49.1371L62.1607 51.7353L69.4177 44.4783C69.8208 44.0752 70.0448 43.5376 70.0448 43.0001C70.0448 42.4177 69.8208 41.925 69.4177 41.5218Z" fill="white"/>
<path d="M59.6074 49.9882C59.473 50.7498 59.0698 51.4665 58.4875 52.004C57.054 53.3479 54.7246 53.3927 53.2912 52.0488C52.5296 51.3321 52.0817 50.3914 52.0817 49.3611C52.0817 48.5996 52.3057 47.838 52.7088 47.2109C52.8432 46.9869 53.0224 46.8077 53.2016 46.6286C53.7391 46.091 54.4111 45.7326 55.1726 45.5982L53.0224 43.4033L50.4242 46.0014C50.3347 46.1358 50.2003 46.1358 50.1107 46.091C50.0211 46.0462 49.9315 45.9566 49.9315 45.8222C49.9315 44.9711 49.5731 44.2096 48.9908 43.6272C48.3636 43.0001 47.5573 42.6865 46.6614 42.6865C46.5718 42.6865 46.4374 42.6865 46.3478 42.6865C45.5863 42.7761 44.9144 43.1345 44.3768 43.672C43.5257 44.5679 43.3465 45.9118 43.7497 47.0317C43.7497 47.0765 43.7945 47.1213 43.7945 47.1661C43.7945 47.2109 43.8393 47.2557 43.8393 47.3005C43.9737 47.5693 44.1528 47.838 44.3768 48.062C44.9592 48.6892 45.7655 49.0475 46.6166 49.0475C46.751 49.0475 46.8406 49.1371 46.8854 49.2267C46.9302 49.3163 46.8854 49.4507 46.8406 49.5403L44.2424 52.1384L51.4993 59.3954C52.3057 60.2017 53.6495 60.2017 54.4559 59.3954L61.7128 52.1384L59.6074 49.9882Z" fill="white"/>
<path d="M36.6271 44.4782L43.8841 51.7351L46.0343 49.5849C45.2727 49.4505 44.556 49.0473 44.0184 48.465C42.6746 47.0315 42.6298 44.7021 43.9736 43.2687C44.6904 42.5071 45.6311 42.0592 46.6614 42.0592C47.6917 42.0592 48.6772 42.4175 49.3939 43.1791C49.9315 43.7166 50.2899 44.3886 50.4242 45.1501L52.5744 42.9999L49.9763 40.4017C49.8867 40.3121 49.8867 40.1778 49.9315 40.0882C49.9763 39.9986 50.0659 39.909 50.2003 39.909C51.0514 39.909 51.8129 39.5506 52.3953 38.9683C52.4848 38.8787 52.5296 38.7891 52.6192 38.7443C53.112 38.1619 53.336 37.4452 53.336 36.6837C53.336 35.8326 52.9776 35.0262 52.3057 34.3991C51.0962 33.2792 49.1252 33.2792 47.9605 34.4439C47.3333 35.0262 46.975 35.8326 46.975 36.6837C46.975 36.8181 46.8854 36.9077 46.7958 36.9525C46.7062 36.9973 46.5718 36.9525 46.4822 36.9077L43.8841 34.3095L36.6271 41.5216C36.224 41.9248 36 42.4175 36 42.9999C36 43.5822 36.224 44.075 36.6271 44.4782Z" fill="white"/>
<defs>
<filter id="filter0_d_1_754" x="0" y="0" width="106" height="106" filterUnits="userSpaceOnUse" color-interpolation-filters="sRGB">
<feFlood flood-opacity="0" result="BackgroundImageFix"/>
<feColorMatrix in="SourceAlpha" type="matrix" values="0 0 0 0 0 0 0 0 0 0 0 0 0 0 0 0 0 0 127 0" result="hardAlpha"/>
<feMorphology radius="2" operator="erode" in="SourceAlpha" result="effect1_dropShadow_1_754"/>
<feOffset dy="10"/>
<feGaussianBlur stdDeviation="11"/>
<feColorMatrix type="matrix" values="0 0 0 0 0.427083 0 0 0 0 0.671455 0 0 0 0 1 0 0 0 0.36 0"/>
<feBlend mode="normal" in2="BackgroundImageFix" result="effect1_dropShadow_1_754"/>
<feBlend mode="normal" in="SourceGraphic" in2="effect1_dropShadow_1_754" result="shape"/>
</filter>
<linearGradient id="paint0_linear_1_754" x1="33.5" y1="10" x2="65" y2="76" gradientUnits="userSpaceOnUse">
<stop stop-color="#5CA1FE"/>
<stop offset="1" stop-color="#217BF4"/>
</linearGradient>
</defs>
</svg>
