<svg width="35" height="34" viewBox="0 0 35 34" fill="none" xmlns="http://www.w3.org/2000/svg">
<path d="M8.28906 7.86166L10.4393 10.0119C10.5736 9.25033 10.9768 8.5336 11.5592 7.99605C12.9926 6.65217 15.322 6.60738 16.7555 7.95125C16.8451 8.04084 16.9347 8.13044 17.0242 8.22003C17.6066 8.89196 17.965 9.74308 17.965 10.639C17.965 10.8182 17.965 10.9974 17.9202 11.1318C17.8306 11.9829 17.4722 12.7444 16.8451 13.3715C16.3075 13.9091 15.6356 14.2675 14.874 14.4018L17.0242 16.552L19.6224 13.9539C19.6672 13.9091 19.6672 13.9091 19.712 13.9091C19.712 13.9091 19.712 13.9091 19.7568 13.9091C19.8016 13.9091 19.8016 13.9091 19.8464 13.9091C19.8912 13.9091 19.936 13.9091 19.936 13.9091C20.0256 13.9539 20.1152 14.0435 20.1152 14.1779C20.1152 15.029 20.4735 15.7905 21.0559 16.3729C21.683 17 22.4893 17.3136 23.3404 17.3136C23.3404 17.3136 23.3404 17.3136 23.3852 17.3136C23.654 17.3136 23.878 17.2688 24.1468 17.224C24.7291 17.0896 25.2667 16.776 25.6698 16.3281C26.3866 15.5217 26.6553 14.4466 26.4314 13.4163C26.297 12.8788 26.0282 12.386 25.6698 11.9829C25.4459 11.7589 25.1771 11.5349 24.9083 11.4005C24.6395 11.2661 24.3708 11.1765 24.102 11.087C23.9676 11.0422 23.8332 11.0422 23.6988 10.9974C23.6092 10.9974 23.4748 10.9974 23.3852 10.9974C23.2509 10.9974 23.1613 10.9078 23.1165 10.8182C23.0717 10.7286 23.1165 10.5942 23.1613 10.5046L25.7594 7.90646L18.5025 0.604743C17.6962 -0.201581 16.3523 -0.201581 15.546 0.604743L8.28906 7.86166Z" fill="white"/>
<path d="M33.4177 15.5218L26.1607 8.26489L24.0105 10.4151C24.7721 10.5495 25.4888 10.9526 26.0264 11.4902C27.3702 12.9237 27.415 15.253 26.0712 16.6865C25.3544 17.448 24.4137 17.896 23.3834 17.896C22.3531 17.9408 21.3676 17.5376 20.6509 16.7761C20.1133 16.2385 19.7549 15.5666 19.6206 14.8051L17.4256 17.0001L20.0237 19.5982C20.1133 19.6878 20.1133 19.8222 20.0685 19.9118C20.0237 20.0014 19.9341 20.091 19.7997 20.091C18.9486 20.091 18.1871 20.4493 17.6048 21.0317C16.9776 21.6588 16.664 22.4652 16.664 23.3611C16.664 24.2122 17.0224 25.0185 17.6943 25.6457C17.8735 25.8248 18.0975 26.004 18.3663 26.0936C19.531 26.7208 21.054 26.5416 22.0843 25.6009C22.7115 25.0185 23.0698 24.2122 23.0698 23.3611C23.0698 23.2267 23.1594 23.1371 23.249 23.0923C23.3386 23.0475 23.473 23.0923 23.5626 23.1371L26.1607 25.7353L33.4177 18.4783C33.8208 18.0752 34.0448 17.5376 34.0448 17.0001C34.0448 16.4177 33.8208 15.925 33.4177 15.5218Z" fill="white"/>
<path d="M23.6074 23.9882C23.473 24.7498 23.0698 25.4665 22.4875 26.004C21.054 27.3479 18.7246 27.3927 17.2912 26.0488C16.5296 25.3321 16.0817 24.3914 16.0817 23.3611C16.0817 22.5996 16.3057 21.838 16.7088 21.2109C16.8432 20.9869 17.0224 20.8077 17.2016 20.6286C17.7391 20.091 18.4111 19.7326 19.1726 19.5982L17.0224 17.4033L14.4242 20.0014C14.3347 20.1358 14.2003 20.1358 14.1107 20.091C14.0211 20.0462 13.9315 19.9566 13.9315 19.8222C13.9315 18.9711 13.5731 18.2096 12.9908 17.6272C12.3636 17.0001 11.5573 16.6865 10.6614 16.6865C10.5718 16.6865 10.4374 16.6865 10.3478 16.6865C9.5863 16.7761 8.91436 17.1345 8.37682 17.672C7.5257 18.5679 7.34651 19.9118 7.74967 21.0317C7.74967 21.0765 7.79447 21.1213 7.79447 21.1661C7.79447 21.2109 7.83927 21.2557 7.83927 21.3005C7.97365 21.5693 8.15284 21.838 8.37682 22.062C8.95916 22.6892 9.76548 23.0475 10.6166 23.0475C10.751 23.0475 10.8406 23.1371 10.8854 23.2267C10.9302 23.3163 10.8854 23.4507 10.8406 23.5403L8.24243 26.1384L15.4993 33.3954C16.3057 34.2017 17.6495 34.2017 18.4559 33.3954L25.7128 26.1384L23.6074 23.9882Z" fill="white"/>
<path d="M0.627141 18.4782L7.88406 25.7351L10.0343 23.5849C9.27273 23.4505 8.556 23.0473 8.01845 22.465C6.67457 21.0315 6.62978 18.7021 7.97365 17.2687C8.69038 16.5071 9.63109 16.0592 10.6614 16.0592C11.6917 16.0592 12.6772 16.4175 13.3939 17.1791C13.9315 17.7166 14.2899 18.3886 14.4242 19.1501L16.5744 16.9999L13.9763 14.4017C13.8867 14.3121 13.8867 14.1778 13.9315 14.0882C13.9763 13.9986 14.0659 13.909 14.2003 13.909C15.0514 13.909 15.8129 13.5506 16.3953 12.9683C16.4848 12.8787 16.5296 12.7891 16.6192 12.7443C17.112 12.1619 17.336 11.4452 17.336 10.6837C17.336 9.83257 16.9776 9.02624 16.3057 8.3991C15.0962 7.27921 13.1252 7.27921 11.9605 8.4439C11.3333 9.02624 10.975 9.83257 10.975 10.6837C10.975 10.8181 10.8854 10.9077 10.7958 10.9525C10.7062 10.9973 10.5718 10.9525 10.4822 10.9077L7.88406 8.30951L0.627141 15.5216C0.223979 15.9248 0 16.4175 0 16.9999C0 17.5822 0.223979 18.075 0.627141 18.4782Z" fill="white"/>
</svg>
