<svg width="106" height="106" viewBox="0 0 106 106" fill="none" xmlns="http://www.w3.org/2000/svg">
<g filter="url(#filter0_d_1_740)">
<rect x="20" y="12" width="66" height="66" rx="24" fill="url(#paint0_linear_1_740)"/>
</g>
<path fill-rule="evenodd" clip-rule="evenodd" d="M53.1935 45.7499C55.837 45.7499 57.9801 43.6069 57.9801 40.9633C57.9801 38.3198 55.837 36.1768 53.1935 36.1768C50.5499 36.1768 48.4069 38.3198 48.4069 40.9633C48.4069 43.6069 50.5499 45.7499 53.1935 45.7499Z" fill="white"/>
<path fill-rule="evenodd" clip-rule="evenodd" d="M57.3476 45.214C56.2714 46.2402 54.8064 46.8715 53.1924 46.8715C51.5784 46.8715 50.1134 46.2402 49.0372 45.214C48.8519 45.1681 48.6665 45.1227 48.4865 45.0997C48.3065 45.0768 48.1324 45.0768 47.9701 45.1019C47.8082 45.1264 47.6587 45.1767 47.4841 45.2391C47.3094 45.3011 47.1102 45.3759 46.8608 45.5255C46.6119 45.675 46.3123 45.8994 46.026 46.2738C45.7392 46.6472 45.4652 47.1712 45.2158 47.7946C44.9664 48.4174 44.742 49.1406 44.6176 49.8388C44.4931 50.5364 44.468 51.21 44.4558 51.7206C44.4429 52.2318 44.4429 52.5811 44.4931 52.9177C44.5428 53.2542 44.6422 53.5779 44.867 53.9021C45.0913 54.2263 45.4401 54.5506 45.8513 54.7995C46.2626 55.0489 46.7363 55.2236 47.3847 55.3107C48.0326 55.3977 48.8551 55.3977 49.8522 55.3977H52.7438H53.1924H53.641H56.5326C57.5297 55.3977 58.3522 55.3977 59.0001 55.3107C59.6485 55.2236 60.1222 55.0489 60.5335 54.7995C60.9447 54.5506 61.2935 54.2263 61.5178 53.9021C61.7426 53.5779 61.842 53.2542 61.8917 52.9177C61.9419 52.5811 61.9419 52.2318 61.929 51.7206C61.9168 51.21 61.8917 50.5364 61.7672 49.8388C61.6428 49.1406 61.4185 48.4174 61.169 47.7946C60.9196 47.1712 60.6456 46.6472 60.3588 46.2738C60.0725 45.8994 59.7729 45.675 59.524 45.5255C59.2746 45.3759 59.0754 45.3011 58.9008 45.2391C58.7261 45.1767 58.5766 45.1264 58.4147 45.1019C58.2524 45.0768 58.0783 45.0768 57.8983 45.0997C57.7183 45.1227 57.533 45.1681 57.3476 45.214Z" fill="white"/>
<path fill-rule="evenodd" clip-rule="evenodd" d="M58.293 43.3222C59.1437 44.0988 60.2763 44.5732 61.519 44.5732C64.1619 44.5732 66.3044 42.4301 66.3044 39.7866C66.3044 37.143 64.1619 35 61.519 35C59.8219 35 58.3304 35.884 57.4813 37.2168C58.4393 38.0917 59.0406 39.3523 59.0406 40.7523C59.0406 41.6978 58.7661 42.5802 58.293 43.3222Z" fill="white"/>
<path fill-rule="evenodd" clip-rule="evenodd" d="M47.707 43.3222C46.8563 44.0988 45.7237 44.5732 44.481 44.5732C41.8381 44.5732 39.6956 42.4301 39.6956 39.7866C39.6956 37.143 41.8381 35 44.481 35C46.1781 35 47.6696 35.884 48.5187 37.2168C47.5607 38.0917 46.9594 39.3523 46.9594 40.7523C46.9594 41.6978 47.2339 42.5802 47.707 43.3222Z" fill="white"/>
<path fill-rule="evenodd" clip-rule="evenodd" d="M65.4096 44.2143C64.3651 45.2094 62.9551 45.8339 61.3976 45.8702L61.5697 46.0764C61.8566 46.4497 62.1307 46.9737 62.3802 47.5971C62.6297 48.2199 62.8541 48.9432 62.9786 49.6413C63.1031 50.3389 63.1282 51.0125 63.1405 51.5232C63.1533 52.0343 63.1533 52.3837 63.1031 52.7202C63.0534 53.0567 62.954 53.3804 62.7291 53.7047C62.5619 53.9461 62.3257 54.1881 62.0463 54.398H64.5943C65.5918 54.398 66.4147 54.398 67.0628 54.3109C67.7114 54.2239 68.1853 54.0492 68.5967 53.7997C69.0081 53.5508 69.357 53.2266 69.5814 52.9024C69.8064 52.5781 69.9057 52.2544 69.9554 51.9179C70.0056 51.5814 70.0056 51.232 69.9928 50.7209C69.9805 50.2102 69.9554 49.5366 69.8309 48.839C69.7064 48.1409 69.482 47.4176 69.2325 46.7948C68.983 46.1714 68.7089 45.6474 68.422 45.2741C68.1356 44.8996 67.8359 44.6753 67.5869 44.5257C67.3374 44.3761 67.1381 44.3014 66.9634 44.2394C66.7887 44.1769 66.6391 44.1267 66.4772 44.1021C66.3147 44.077 66.1406 44.077 65.9605 44.1C65.7804 44.1229 65.595 44.1683 65.4096 44.2143Z" fill="white"/>
<path fill-rule="evenodd" clip-rule="evenodd" d="M40.5903 44.2143C41.6349 45.2094 43.0449 45.8339 44.6023 45.8702L44.4303 46.0764C44.1434 46.4497 43.8693 46.9737 43.6198 47.5971C43.3703 48.2199 43.1459 48.9432 43.0214 49.6413C42.8969 50.3389 42.8718 51.0125 42.8595 51.5232C42.8467 52.0343 42.8467 52.3837 42.8969 52.7202C42.9466 53.0567 43.0459 53.3804 43.2709 53.7047C43.4381 53.9461 43.6743 54.1881 43.9537 54.398H41.4057C40.4081 54.398 39.5853 54.398 38.9372 54.3109C38.2886 54.2239 37.8147 54.0492 37.4033 53.7997C36.9919 53.5508 36.643 53.2266 36.4186 52.9024C36.1936 52.5781 36.0942 52.2544 36.0446 51.9179C35.9943 51.5814 35.9943 51.232 36.0072 50.7209C36.0194 50.2102 36.0446 49.5366 36.169 48.839C36.2935 48.1409 36.5179 47.4176 36.7675 46.7948C37.017 46.1714 37.2911 45.6474 37.578 45.2741C37.8644 44.8996 38.1641 44.6753 38.4131 44.5257C38.6626 44.3761 38.8619 44.3014 39.0366 44.2394C39.2113 44.1769 39.3609 44.1267 39.5228 44.1021C39.6852 44.077 39.8594 44.077 40.0395 44.1C40.2195 44.1229 40.4049 44.1683 40.5903 44.2143Z" fill="white"/>
<defs>
<filter id="filter0_d_1_740" x="0" y="0" width="106" height="106" filterUnits="userSpaceOnUse" color-interpolation-filters="sRGB">
<feFlood flood-opacity="0" result="BackgroundImageFix"/>
<feColorMatrix in="SourceAlpha" type="matrix" values="0 0 0 0 0 0 0 0 0 0 0 0 0 0 0 0 0 0 127 0" result="hardAlpha"/>
<feMorphology radius="2" operator="erode" in="SourceAlpha" result="effect1_dropShadow_1_740"/>
<feOffset dy="8"/>
<feGaussianBlur stdDeviation="11"/>
<feColorMatrix type="matrix" values="0 0 0 0 0.971137 0 0 0 0 0.341921 0 0 0 0 0.36709 0 0 0 0.3 0"/>
<feBlend mode="normal" in2="BackgroundImageFix" result="effect1_dropShadow_1_740"/>
<feBlend mode="normal" in="SourceGraphic" in2="effect1_dropShadow_1_740" result="shape"/>
</filter>
<linearGradient id="paint0_linear_1_740" x1="33.5" y1="12" x2="65" y2="78" gradientUnits="userSpaceOnUse">
<stop stop-color="#FF858A"/>
<stop offset="1" stop-color="#F04148"/>
</linearGradient>
</defs>
</svg>
