<svg width="34" height="21" viewBox="0 0 34 21" fill="none" xmlns="http://www.w3.org/2000/svg">
<path fill-rule="evenodd" clip-rule="evenodd" d="M17.1935 10.7499C19.837 10.7499 21.9801 8.60688 21.9801 5.96334C21.9801 3.3198 19.837 1.17676 17.1935 1.17676C14.5499 1.17676 12.4069 3.3198 12.4069 5.96334C12.4069 8.60688 14.5499 10.7499 17.1935 10.7499Z" fill="white"/>
<path fill-rule="evenodd" clip-rule="evenodd" d="M21.3476 10.214C20.2714 11.2402 18.8064 11.8715 17.1924 11.8715C15.5784 11.8715 14.1134 11.2402 13.0372 10.214C12.8519 10.1681 12.6665 10.1227 12.4865 10.0997C12.3065 10.0768 12.1324 10.0768 11.9701 10.1019C11.8082 10.1264 11.6587 10.1767 11.4841 10.2391C11.3094 10.3011 11.1102 10.3759 10.8608 10.5255C10.6119 10.675 10.3123 10.8994 10.026 11.2738C9.73918 11.6472 9.46519 12.1712 9.21577 12.7946C8.96635 13.4174 8.74203 14.1406 8.61759 14.8388C8.49315 15.5364 8.46805 16.21 8.45576 16.7206C8.44294 17.2318 8.44294 17.5811 8.49315 17.9177C8.54282 18.2542 8.64216 18.5779 8.86701 18.9021C9.09133 19.2263 9.44009 19.5506 9.85134 19.7995C10.2626 20.0489 10.7363 20.2236 11.3847 20.3107C12.0326 20.3977 12.8551 20.3977 13.8522 20.3977H16.7438H17.1924H17.641H20.5326C21.5297 20.3977 22.3522 20.3977 23.0001 20.3107C23.6485 20.2236 24.1222 20.0489 24.5335 19.7995C24.9447 19.5506 25.2935 19.2263 25.5178 18.9021C25.7426 18.5779 25.842 18.2542 25.8917 17.9177C25.9419 17.5811 25.9419 17.2318 25.929 16.7206C25.9168 16.21 25.8917 15.5364 25.7672 14.8388C25.6428 14.1406 25.4185 13.4174 25.169 12.7946C24.9196 12.1712 24.6456 11.6472 24.3588 11.2738C24.0725 10.8994 23.7729 10.675 23.524 10.5255C23.2746 10.3759 23.0754 10.3011 22.9008 10.2391C22.7261 10.1767 22.5766 10.1264 22.4147 10.1019C22.2524 10.0768 22.0783 10.0768 21.8983 10.0997C21.7183 10.1227 21.533 10.1681 21.3476 10.214Z" fill="white"/>
<path fill-rule="evenodd" clip-rule="evenodd" d="M22.293 8.32217C23.1437 9.09883 24.2763 9.57317 25.519 9.57317C28.1619 9.57317 30.3044 7.43013 30.3044 4.78658C30.3044 2.14304 28.1619 0 25.519 0C23.8219 0 22.3304 0.88403 21.4813 2.21675C22.4393 3.0917 23.0406 4.35231 23.0406 5.75234C23.0406 6.6978 22.7661 7.58022 22.293 8.32217Z" fill="white"/>
<path fill-rule="evenodd" clip-rule="evenodd" d="M11.707 8.32217C10.8563 9.09883 9.72365 9.57317 8.48098 9.57317C5.83809 9.57317 3.69559 7.43013 3.69559 4.78658C3.69559 2.14304 5.83809 0 8.48098 0C10.1781 0 11.6696 0.88403 12.5187 2.21675C11.5607 3.0917 10.9594 4.35231 10.9594 5.75234C10.9594 6.6978 11.2339 7.58022 11.707 8.32217Z" fill="white"/>
<path fill-rule="evenodd" clip-rule="evenodd" d="M29.4096 9.21429C28.3651 10.2094 26.9551 10.8339 25.3976 10.8702L25.5697 11.0764C25.8566 11.4497 26.1307 11.9737 26.3802 12.5971C26.6297 13.2199 26.8541 13.9432 26.9786 14.6413C27.1031 15.3389 27.1282 16.0125 27.1405 16.5232C27.1533 17.0343 27.1533 17.3837 27.1031 17.7202C27.0534 18.0567 26.954 18.3804 26.7291 18.7047C26.5619 18.9461 26.3257 19.1881 26.0463 19.398H28.5943C29.5918 19.398 30.4147 19.398 31.0628 19.3109C31.7114 19.2239 32.1853 19.0492 32.5967 18.7997C33.0081 18.5508 33.357 18.2266 33.5814 17.9024C33.8064 17.5781 33.9057 17.2544 33.9554 16.9179C34.0056 16.5814 34.0056 16.232 33.9928 15.7209C33.9805 15.2102 33.9554 14.5366 33.8309 13.839C33.7064 13.1409 33.482 12.4176 33.2325 11.7948C32.983 11.1714 32.7089 10.6474 32.422 10.2741C32.1356 9.89961 31.8359 9.67526 31.5869 9.5257C31.3374 9.37614 31.1381 9.30135 30.9634 9.23939C30.7887 9.17689 30.6391 9.12668 30.4772 9.10211C30.3147 9.07701 30.1406 9.07701 29.9605 9.09998C29.7804 9.12294 29.595 9.16835 29.4096 9.21429Z" fill="white"/>
<path fill-rule="evenodd" clip-rule="evenodd" d="M4.59033 9.21429C5.63488 10.2094 7.04488 10.8339 8.60235 10.8702L8.43031 11.0764C8.14339 11.4497 7.8693 11.9737 7.61978 12.5971C7.37027 13.2199 7.14586 13.9432 7.02137 14.6413C6.89688 15.3389 6.87177 16.0125 6.85948 16.5232C6.84666 17.0343 6.84666 17.3837 6.89688 17.7202C6.94657 18.0567 7.04595 18.3804 7.27089 18.7047C7.43812 18.9461 7.67428 19.1881 7.95371 19.398H5.40566C4.40814 19.398 3.58532 19.398 2.93722 19.3109C2.28859 19.2239 1.81467 19.0492 1.40326 18.7997C0.991857 18.5508 0.642963 18.2266 0.418559 17.9024C0.193621 17.5781 0.0942424 17.2544 0.044553 16.9179C-0.00567072 16.5814 -0.00567072 16.232 0.00715235 15.7209C0.0194411 15.2102 0.044553 14.5366 0.169044 13.839C0.293534 13.1409 0.517938 12.4176 0.767453 11.7948C1.01697 11.1714 1.29106 10.6474 1.57798 10.2741C1.86436 9.89961 2.1641 9.67526 2.41308 9.5257C2.6626 9.37614 2.86189 9.30135 3.0366 9.23939C3.21132 9.17689 3.36092 9.12668 3.52281 9.10211C3.68524 9.07701 3.85942 9.07701 4.03947 9.09998C4.21953 9.12294 4.40493 9.16835 4.59033 9.21429Z" fill="white"/>
</svg>
