<svg width="36" height="36" viewBox="0 0 36 36" fill="none" xmlns="http://www.w3.org/2000/svg">
<circle cx="18" cy="18" r="18" fill="white"/>
<path d="M25.7627 12.1306C26.623 11.6149 27.2836 10.7984 27.5947 9.82552C26.7897 10.3029 25.898 10.6497 24.9489 10.8366C24.1889 10.0268 23.1061 9.52081 21.9078 9.52081C19.6067 9.52081 17.7412 11.3863 17.7412 13.6872C17.7412 14.0137 17.7781 14.3317 17.8491 14.6366C14.3864 14.4629 11.3163 12.8042 9.2614 10.2835C8.90276 10.8988 8.6973 11.6145 8.6973 12.3781C8.6973 13.8235 9.43292 15.0988 10.5509 15.846C9.86784 15.8243 9.22545 15.6369 8.66365 15.3249C8.66335 15.3422 8.66335 15.3597 8.66335 15.3772C8.66335 17.3959 10.0995 19.0799 12.0055 19.4626C11.6559 19.5578 11.2878 19.6087 10.9078 19.6087C10.6393 19.6087 10.3783 19.5827 10.124 19.534C10.6541 21.1893 12.1928 22.3939 14.016 22.4275C12.5901 23.545 10.7935 24.211 8.84155 24.211C8.50528 24.211 8.17361 24.1914 7.84766 24.1529C9.69149 25.335 11.8816 26.0247 14.2345 26.0247C21.898 26.0247 26.0887 19.676 26.0887 14.1703C26.0887 13.9896 26.0847 13.81 26.0767 13.6313C26.8907 13.0439 27.5971 12.31 28.1557 11.4745C27.4085 11.8059 26.6055 12.0298 25.7627 12.1306Z" fill="#2B2B39"/>
</svg>
